<svg width="55" height="163" viewBox="0 0 55 163" fill="none" xmlns="http://www.w3.org/2000/svg">
<path d="M6 56.5C6 54.8431 4.65685 53.5 3 53.5C1.34315 53.5 0 54.8431 0 56.5H6ZM12.5828 20.9142H15.5828H12.5828ZM46.7837 48.5339C46.7837 46.877 45.4406 45.5339 43.7837 45.5339C42.1268 45.5339 40.7837 46.877 40.7837 48.5339H46.7837ZM9.58277 64V67H15.5828V64H9.58277ZM40.7837 64V67H46.7837V64H40.7837ZM3 137.731H0C0 151.947 12.5855 163 27.5 163V160V157C15.348 157 6 148.108 6 137.731H3ZM27.5 160V163C42.4094 163 55 151.952 55 137.731H52H49C49 148.111 39.6483 157 27.5 157V160ZM52 20.9142H55C55 9.10165 44.5559 0 32.2914 0V3V6C41.794 6 49 12.9415 49 20.9142H52ZM32.2914 3V0C20.0269 0 9.58277 9.10165 9.58277 20.9142H12.5828H15.5828C15.5828 12.9415 22.7888 6 32.2914 6V3ZM12.5828 20.9142C9.58277 20.9142 9.58277 20.9143 9.58277 20.9146C9.58277 20.9149 9.58277 20.9153 9.58277 20.9159C9.58277 20.917 9.58277 20.9188 9.58277 20.921C9.58277 20.9254 9.58277 20.9326 9.58277 20.9414C9.58277 20.9596 9.58277 20.9865 9.58277 21.0221C9.58277 21.0934 9.58277 21.1992 9.58277 21.3375C9.58277 21.614 9.58277 22.0203 9.58277 22.5394C9.58277 23.5775 9.58277 25.0666 9.58277 26.8709C9.58277 30.4794 9.58277 35.3481 9.58277 40.3892C9.58277 50.4713 9.58277 61.2428 9.58277 64H12.5828H15.5828C15.5828 61.2428 15.5828 50.4713 15.5828 40.3892C15.5828 35.3481 15.5828 30.4794 15.5828 26.8709C15.5828 25.0666 15.5828 23.5775 15.5828 22.5394C15.5828 22.0203 15.5828 21.614 15.5828 21.3375C15.5828 21.1992 15.5828 21.0934 15.5828 21.0221C15.5828 20.9866 15.5828 20.9594 15.5828 20.9414C15.5828 20.9321 15.5828 20.9259 15.5828 20.921C15.5828 20.9188 15.5828 20.9171 15.5828 20.9159C15.5828 20.9153 15.5828 20.9149 15.5828 20.9146C15.5828 20.9143 15.5828 20.9142 12.5828 20.9142ZM3 56.5H0V81.6324H3H6V56.5H3ZM3 81.6324H0V137.731H3H6V81.6324H3ZM43.7837 64H46.7837L46.7837 48.5339H43.7837H40.7837L40.7837 64H43.7837ZM52 137.731H55V81.2764H52H49V137.731H52ZM52 81.2764H55V20.9142H52H49V81.2764H52Z" fill="#F14F4D"/>
</svg>
