<svg width="22" height="22" viewBox="0 0 22 22" fill="none" xmlns="http://www.w3.org/2000/svg">
<path fill-rule="evenodd" clip-rule="evenodd" d="M11.0003 1.8335C11.1997 1.8335 11.3906 1.91476 11.5289 2.05855L16.1122 6.82522C16.3929 7.11716 16.3838 7.58139 16.0919 7.86211C15.7999 8.14282 15.3357 8.13372 15.055 7.84178L11.7336 4.38753L11.7336 19.4328C11.7336 19.8378 11.4053 20.1661 11.0003 20.1661C10.5953 20.1661 10.2669 19.8378 10.2669 19.4328L10.2669 4.38753L6.94554 7.84178C6.66482 8.13372 6.20059 8.14282 5.90865 7.86211C5.6167 7.58139 5.6076 7.11716 5.88832 6.82522L10.4717 2.05855C10.6099 1.91476 10.8008 1.8335 11.0003 1.8335Z" fill="white"/>
</svg>
