<svg width="20" height="20" viewBox="0 0 20 20" fill="none" xmlns="http://www.w3.org/2000/svg">
<path fill-rule="evenodd" clip-rule="evenodd" d="M11.7412 2.42334C12.0619 2.42342 12.3744 2.52441 12.6346 2.71199C12.8947 2.89958 13.0892 3.16425 13.1905 3.46852L13.6054 4.7154H16.1114C16.314 4.7154 16.5084 4.7959 16.6516 4.93918C16.7949 5.08246 16.8754 5.27679 16.8754 5.47942C16.8754 5.68205 16.7949 5.87638 16.6516 6.01967C16.5084 6.16295 16.314 6.24344 16.1114 6.24344H15.3474V15.4117C15.3474 16.0196 15.1059 16.6026 14.676 17.0324C14.2462 17.4623 13.6632 17.7037 13.0553 17.7037H6.94315C6.33526 17.7037 5.75226 17.4623 5.32242 17.0324C4.89257 16.6026 4.65109 16.0196 4.65109 15.4117V6.24344H3.88707C3.68444 6.24344 3.4901 6.16295 3.34682 6.01967C3.20354 5.87638 3.12305 5.68205 3.12305 5.47942C3.12305 5.27679 3.20354 5.08246 3.34682 4.93918C3.4901 4.7959 3.68444 4.7154 3.88707 4.7154H6.39305L6.80792 3.46852C6.9093 3.16413 7.10392 2.89936 7.3642 2.71177C7.62447 2.52417 7.93719 2.42326 8.25803 2.42334H11.7412ZM13.8193 6.24344H6.17913V15.4117C6.17913 15.6143 6.25962 15.8086 6.4029 15.9519C6.54619 16.0952 6.74052 16.1757 6.94315 16.1757H13.0553C13.2579 16.1757 13.4523 16.0952 13.5956 15.9519C13.7388 15.8086 13.8193 15.6143 13.8193 15.4117V6.24344ZM11.7412 3.95138H8.25726L8.00285 4.7154H11.9956L11.7412 3.95138Z" fill="#33363D"/>
</svg>
