<svg width="20" height="20" viewBox="0 0 20 20" fill="none" xmlns="http://www.w3.org/2000/svg">
<path d="M11.251 1.66553C11.4278 1.66553 11.5976 1.73579 11.7227 1.86084L16.4717 6.61084C16.5967 6.73586 16.667 6.90575 16.667 7.08252V16.8325C16.6667 17.6607 15.9953 18.3325 15.167 18.3325H4.83398C4.00587 18.3323 3.33425 17.6606 3.33398 16.8325V3.16553C3.33398 2.33721 4.00571 1.6657 4.83398 1.66553H11.251ZM4.83398 2.99854C4.74209 2.99871 4.66797 3.07359 4.66797 3.16553V16.8325C4.66823 16.9242 4.74225 16.9984 4.83398 16.9985H15.167C15.2589 16.9985 15.3337 16.9243 15.334 16.8325V7.74854H12.084C11.2557 7.74836 10.584 7.07685 10.584 6.24854V2.99854H4.83398ZM12.4512 8.78857C12.6589 8.48461 13.0739 8.4061 13.3779 8.61377C13.6819 8.8215 13.7595 9.23653 13.5518 9.54053L10.1357 14.5405C10.0238 14.7043 9.84398 14.8102 9.64648 14.8286C9.44915 14.8469 9.25347 14.7763 9.11328 14.6362L7.0293 12.5532C6.76891 12.293 6.7682 11.8703 7.02832 11.6099C7.28859 11.3494 7.71125 11.3496 7.97168 11.6099L9.48828 13.1255L12.4512 8.78857ZM11.918 6.24854C11.918 6.34047 11.9921 6.41535 12.084 6.41553H14.3906L11.918 3.94189V6.24854Z" fill="white"/>
</svg>
