<svg width="40" height="40" viewBox="0 0 40 40" fill="none" xmlns="http://www.w3.org/2000/svg">
<path d="M11.5901 24.6007C12.0123 25.0712 12.4438 25.5322 12.8791 25.9796C14.5844 27.7326 16.3124 29.2568 17.6526 30.3683C18.3217 30.9233 18.8916 31.3737 19.3098 31.6955C19.5189 31.8563 19.6894 31.9845 19.8147 32.0773C19.8773 32.1237 19.9283 32.1604 19.966 32.1876L20.0002 32.2121L20.0344 32.1867C20.0718 32.1597 20.1224 32.1235 20.1848 32.0773C20.3099 31.9848 20.4806 31.8562 20.6897 31.6955C21.1077 31.374 21.677 30.9241 22.3459 30.3693C23.6861 29.2579 25.4149 27.734 27.1203 25.9806C27.556 25.5328 27.9879 25.0716 28.4104 24.6007H31.9035C30.9906 25.7429 30.0096 26.8344 29.0315 27.84C25.4686 31.5029 21.8304 34.1939 21.468 34.4386L21.467 34.4396L20.7453 34.9259C20.2948 35.2298 19.7047 35.2298 19.2541 34.9259L18.5315 34.4396L18.5285 34.4367C18.1711 34.1939 14.5316 31.5034 10.967 27.839C9.9892 26.8338 9.00955 25.7424 8.09691 24.6007H11.5901ZM21.5295 15.341C22.022 15.2897 22.5019 15.5159 22.7766 15.9279L25.7141 20.3341H34.7502C34.5111 20.7921 34.2531 21.2442 33.9797 21.6867C33.7063 22.1291 33.4147 22.5675 33.1096 23.0011H29.7688L29.7698 23.0001H25.0012C24.5554 23.0001 24.1391 22.7773 23.8918 22.4064L21.9641 19.5158L19.5725 25.4953C19.4061 25.9113 19.0416 26.2166 18.6028 26.3068C18.1638 26.3969 17.7087 26.2602 17.3918 25.9435L14.4485 23.0001H10.2297L10.2307 23.0011H6.88988C6.58465 22.5673 6.29329 22.1283 6.01976 21.6857C5.7464 21.2433 5.48829 20.7919 5.24925 20.3341H15.0012C15.3547 20.3342 15.6936 20.4748 15.9436 20.7248L17.8469 22.6281L20.4299 16.172C20.6138 15.7123 21.0371 15.3922 21.5295 15.341ZM26.927 5.00113C29.5021 5.10777 31.9419 6.18187 33.7082 8.00796C35.4705 9.8298 36.4191 12.2539 36.3274 14.756C36.3232 16.0887 36.0048 17.4289 35.4875 18.7345H32.5715C33.2708 17.3073 33.6604 15.9548 33.6604 14.7296C33.6604 14.7121 33.6607 14.6944 33.6614 14.6769C33.7312 12.9118 33.0663 11.1796 31.7912 9.86148C30.5225 8.55005 28.751 7.75518 26.8547 7.66714C25.6835 7.69071 24.5419 8.00578 23.5442 8.57632C23.1573 8.79756 22.7329 9.20489 22.2951 9.76577C21.8668 10.3145 21.4833 10.9335 21.1526 11.5031C20.914 11.914 20.4744 12.1671 19.9993 12.1671C19.5242 12.167 19.0854 11.9139 18.8469 11.5031C18.5161 10.9335 18.1326 10.3145 17.7043 9.76577C17.2665 9.20489 16.8422 8.79756 16.4553 8.57632C15.4576 8.00573 14.3161 7.69071 13.1448 7.66714C11.2485 7.75514 9.47697 8.55006 8.20823 9.86148C6.93319 11.1796 6.26827 12.9118 6.33812 14.6769C6.33881 14.6944 6.33909 14.7121 6.33909 14.7296C6.33909 15.9548 6.72858 17.3073 7.42796 18.7345H4.51195C3.99462 17.4289 3.67626 16.0887 3.6721 14.756C3.58037 12.2539 4.52897 9.82981 6.29124 8.00796C8.05763 6.18188 10.4974 5.10777 13.0725 5.00113C13.0972 5.00011 13.122 4.99979 13.1467 5.00015C14.7763 5.02431 16.3746 5.45843 17.7795 6.26187C18.5991 6.73069 19.2756 7.4445 19.8069 8.12515C19.8724 8.20908 19.9363 8.29399 19.9993 8.37906C20.0622 8.29393 20.1271 8.20914 20.1926 8.12515C20.7239 7.44447 21.4003 6.73069 22.22 6.26187C23.6247 5.45848 25.2223 5.02436 26.8518 5.00015C26.8767 4.99978 26.902 5.00009 26.927 5.00113Z" fill="#ED1F1C"/>
</svg>
