<svg width="20" height="20" viewBox="0 0 20 20" fill="none" xmlns="http://www.w3.org/2000/svg">
<path fill-rule="evenodd" clip-rule="evenodd" d="M13.6953 2.02876C13.9556 1.76841 14.3777 1.76841 14.6381 2.02876L17.9714 5.36209C18.0964 5.48712 18.1667 5.65669 18.1667 5.8335C18.1667 6.01031 18.0964 6.17988 17.9714 6.3049L10.4714 13.8049C10.3464 13.9299 10.1768 14.0002 10 14.0002H6.66667C6.29848 14.0002 6 13.7017 6 13.3335V10.0002C6 9.82335 6.07024 9.65378 6.19526 9.52876L13.6953 2.02876ZM14.1667 3.44297L12.6095 5.00016L15 7.39069L16.5572 5.8335L14.1667 3.44297ZM14.0572 8.3335L11.6667 5.94297L7.33333 10.2763V12.6668H9.72386L14.0572 8.3335ZM4 3.8335C3.90795 3.8335 3.83333 3.90812 3.83333 4.00016V16.0002C3.83333 16.0922 3.90795 16.1668 4 16.1668H16C16.092 16.1668 16.1667 16.0922 16.1667 16.0002V10.1668C16.1667 9.79864 16.4651 9.50016 16.8333 9.50016C17.2015 9.50016 17.5 9.79864 17.5 10.1668V16.0002C17.5 16.8286 16.8284 17.5002 16 17.5002H4C3.17157 17.5002 2.5 16.8286 2.5 16.0002V4.00016C2.5 3.17174 3.17157 2.50016 4 2.50016H9.83268C10.2009 2.50016 10.4993 2.79864 10.4993 3.16683C10.4993 3.53502 10.2009 3.8335 9.83268 3.8335H4Z" fill="#33363D"/>
</svg>
