<svg width="20" height="21" viewBox="0 0 20 21" fill="none" xmlns="http://www.w3.org/2000/svg">
<path d="M10.001 2.1665C5.3988 2.1665 1.66726 5.8974 1.66699 10.4995C1.66699 15.1019 5.39864 18.8335 10.001 18.8335C14.6031 18.8332 18.334 15.1017 18.334 10.4995C18.3337 5.89756 14.603 2.16677 10.001 2.1665ZM10.001 3.50049C13.8666 3.50075 17.0007 6.63394 17.001 10.4995C17.001 14.3653 13.8667 17.4992 10.001 17.4995C6.13502 17.4995 3.00098 14.3655 3.00098 10.4995C3.00124 6.63378 6.13518 3.50049 10.001 3.50049ZM11.4717 7.19971C11.2114 6.9394 10.7887 6.93949 10.5283 7.19971L7.7002 10.0288C7.4399 10.2892 7.43986 10.7109 7.7002 10.9712L10.5283 13.7993C10.7887 14.0597 11.2113 14.0597 11.4717 13.7993C11.7315 13.539 11.7317 13.1172 11.4717 12.8569L9.11426 10.4995L11.4717 8.14307C11.7319 7.88272 11.732 7.46001 11.4717 7.19971Z" fill="#58616A"/>
</svg>
