<svg width="24" height="25" viewBox="0 0 24 25" fill="none" xmlns="http://www.w3.org/2000/svg">
<g clip-path="url(#clip0_487_14172)">
<path d="M21.9996 12.068C21.9996 6.5249 17.5225 2.03125 11.9998 2.03125C6.47711 2.03125 2 6.5249 2 12.068C2 16.7748 5.22874 20.7245 9.58425 21.8092V15.1352H7.52229V12.068H9.58425V10.7463C9.58425 7.33024 11.1246 5.74685 14.4662 5.74685C15.0997 5.74685 16.1929 5.87171 16.6401 5.99616V8.77634C16.4041 8.75145 15.9941 8.739 15.4849 8.739C13.8454 8.739 13.2118 9.36248 13.2118 10.9832V12.068H16.4781L15.9169 15.1352H13.2118V22.0312C18.1633 21.4311 22 17.1996 22 12.068H21.9996Z" fill="#33363D"/>
</g>
<defs>
<clipPath id="clip0_487_14172">
<rect width="24" height="24" fill="white" transform="translate(0 0.03125)"/>
</clipPath>
</defs>
</svg>
