<svg width="17" height="16" viewBox="0 0 17 16" fill="none" xmlns="http://www.w3.org/2000/svg">
<g clip-path="url(#clip0_975_31207)">
<path d="M3.06484 10.1986C2.49818 9.46263 2.21484 9.09397 2.21484 8.0013C2.21484 6.90797 2.49818 6.54064 3.06484 5.80397C4.19618 4.33464 6.09351 2.66797 8.88151 2.66797C11.6695 2.66797 13.5668 4.33464 14.6982 5.80397C15.2648 6.5413 15.5482 6.90864 15.5482 8.0013C15.5482 9.09464 15.2648 9.46197 14.6982 10.1986C13.5668 11.668 11.6695 13.3346 8.88151 13.3346C6.09351 13.3346 4.19618 11.668 3.06484 10.1986Z" stroke="#58616A" stroke-width="1.5"/>
<path d="M10.8828 8C10.8828 8.53043 10.6721 9.03914 10.297 9.41421C9.92195 9.78929 9.41325 10 8.88281 10C8.35238 10 7.84367 9.78929 7.4686 9.41421C7.09353 9.03914 6.88281 8.53043 6.88281 8C6.88281 7.46957 7.09353 6.96086 7.4686 6.58579C7.84367 6.21071 8.35238 6 8.88281 6C9.41325 6 9.92195 6.21071 10.297 6.58579C10.6721 6.96086 10.8828 7.46957 10.8828 8Z" stroke="#58616A" stroke-width="1.5"/>
</g>
<defs>
<clipPath id="clip0_975_31207">
<rect width="16" height="16" fill="white" transform="translate(0.882812)"/>
</clipPath>
</defs>
</svg>
