<svg width="40" height="40" viewBox="0 0 40 40" fill="none" xmlns="http://www.w3.org/2000/svg">
<path d="M21.6641 4.33203C23.3209 4.33203 24.6641 5.67518 24.6641 7.33203V9.33203H33.6631C35.3199 9.33203 36.6631 10.6752 36.6631 12.332V30.332C36.6631 31.9889 35.3199 33.332 33.6631 33.332H6.33203C4.67533 33.3319 3.33203 31.9888 3.33203 30.332V12.332C3.33203 10.6753 4.67533 9.33221 6.33203 9.33203H15.3311V7.33203C15.3311 5.67518 16.6742 4.33203 18.3311 4.33203H21.6641ZM6.33203 11.999C6.14809 11.9992 5.99902 12.148 5.99902 12.332V30.332C5.99902 30.516 6.14809 30.6649 6.33203 30.665H33.6631C33.8472 30.665 33.9961 30.5161 33.9961 30.332V12.332C33.9961 12.1479 33.8472 11.999 33.6631 11.999H24.6641V13.999C24.6639 15.6557 23.3208 16.999 21.6641 16.999H18.3311C16.6743 16.999 15.3312 15.6557 15.3311 13.999V11.999H6.33203ZM17.0029 23.999C18.1074 23.999 19.0028 24.8946 19.0029 25.999V27.999H9.00293V25.999C9.00311 24.8946 9.89847 23.999 11.0029 23.999H17.0029ZM29.998 24.332C30.7342 24.3322 31.3309 24.9289 31.3311 25.665C31.3311 26.4013 30.7343 26.9988 29.998 26.999H21.6641C20.9278 26.9988 20.3311 26.4013 20.3311 25.665C20.3312 24.9289 20.9279 24.3322 21.6641 24.332H29.998ZM14.085 18.332C15.3275 18.332 16.3348 19.3395 16.335 20.582C16.3347 21.8244 15.3274 22.832 14.085 22.832C12.8425 22.832 11.8352 21.8244 11.835 20.582C11.8351 19.3395 12.8424 18.332 14.085 18.332ZM29.998 19.332C30.7342 19.3322 31.3309 19.9289 31.3311 20.665C31.3311 21.4013 30.7343 21.9988 29.998 21.999H21.6641C20.9278 21.9988 20.3311 21.4013 20.3311 20.665C20.3312 19.9289 20.9279 19.3322 21.6641 19.332H29.998ZM18.3311 6.99902C18.147 6.99902 17.998 7.14794 17.998 7.33203V13.999C17.9982 14.183 18.1471 14.332 18.3311 14.332H21.6641C21.848 14.332 21.9979 14.183 21.998 13.999V7.33203C21.998 7.14794 21.8482 6.99902 21.6641 6.99902H18.3311Z" fill="#ED1F1C"/>
</svg>
