<svg width="24" height="25" viewBox="0 0 24 25" fill="none" xmlns="http://www.w3.org/2000/svg">
<path d="M8.27263 3.09419C7.31502 3.13937 6.66107 3.29219 6.08939 3.51684C5.49772 3.74742 4.99623 4.05684 4.49727 4.5576C3.9983 5.05836 3.69104 5.5602 3.46208 6.15276C3.2405 6.72571 3.09038 7.38019 3.04808 8.33833C3.00577 9.29648 2.99641 9.60446 3.00109 12.0485C3.00577 14.4926 3.01657 14.7989 3.06302 15.759C3.10874 16.7165 3.26102 17.3702 3.48566 17.9421C3.7166 18.5337 4.02566 19.035 4.52661 19.5342C5.02755 20.0333 5.52904 20.3399 6.12305 20.5692C6.69545 20.7904 7.35012 20.9413 8.30809 20.9832C9.26606 21.0251 9.5744 21.0349 12.0177 21.0302C14.4611 21.0255 14.7687 21.0147 15.7287 20.9692C16.6886 20.9236 17.339 20.7703 17.911 20.5467C18.5027 20.3152 19.0043 20.0067 19.5031 19.5056C20.0019 19.0044 20.309 18.5022 20.5378 17.9093C20.7595 17.3369 20.9102 16.6823 20.9518 15.725C20.9937 14.7644 21.0036 14.4576 20.9989 12.0139C20.9943 9.57026 20.9833 9.2639 20.9377 8.30413C20.8922 7.34437 20.7397 6.69259 20.5153 6.12036C20.284 5.5287 19.9753 5.02776 19.4745 4.52826C18.9737 4.02876 18.4712 3.72186 17.8784 3.49362C17.3057 3.27203 16.6514 3.12101 15.6934 3.07961C14.7354 3.03821 14.4271 3.02759 11.9828 3.03227C9.53858 3.03695 9.23258 3.04739 8.27263 3.09419ZM8.37775 19.3641C7.50024 19.3259 7.02378 19.1801 6.70625 19.0581C6.28577 18.8961 5.98624 18.7002 5.6698 18.3869C5.35336 18.0735 5.15896 17.7729 4.99479 17.3533C4.87149 17.0358 4.72299 16.5599 4.68195 15.6824C4.63731 14.7339 4.62795 14.4492 4.62273 12.0463C4.61751 9.64352 4.62669 9.35912 4.66827 8.41033C4.70571 7.53355 4.85241 7.05655 4.97427 6.73921C5.13628 6.31819 5.3314 6.0192 5.6455 5.70294C5.9596 5.38668 6.25931 5.19192 6.67925 5.02776C6.99641 4.90392 7.47234 4.75668 8.34949 4.71492C9.29864 4.66992 9.58304 4.66092 11.9855 4.6557C14.388 4.65048 14.6731 4.65948 15.6226 4.70124C16.4994 4.7394 16.9766 4.88466 17.2936 5.00724C17.7143 5.16924 18.0136 5.36382 18.3299 5.67846C18.6461 5.9931 18.8411 6.29173 19.0052 6.71257C19.1293 7.02883 19.2765 7.50457 19.3179 8.38225C19.3631 9.3314 19.3733 9.61598 19.3777 12.0183C19.382 14.4206 19.3735 14.7059 19.3319 15.6543C19.2936 16.5318 19.1482 17.0084 19.0259 17.3263C18.8639 17.7466 18.6686 18.0463 18.3543 18.3624C18.0401 18.6785 17.7407 18.8732 17.3206 19.0374C17.0038 19.161 16.5273 19.3087 15.6509 19.3504C14.7018 19.3951 14.4173 19.4044 12.014 19.4096C9.61058 19.4149 9.32708 19.4051 8.37793 19.3641M15.7148 7.22107C15.7152 7.43469 15.7789 7.6434 15.8978 7.82082C16.0168 7.99823 16.1858 8.13638 16.3833 8.21778C16.5808 8.29918 16.798 8.32019 17.0074 8.27814C17.2169 8.23609 17.4091 8.13287 17.5599 7.98154C17.7107 7.83021 17.8132 7.63757 17.8545 7.42798C17.8957 7.21839 17.8739 7.00126 17.7918 6.80406C17.7097 6.60685 17.5709 6.43844 17.3931 6.3201C17.2152 6.20177 17.0063 6.13884 16.7927 6.13926C16.5063 6.13984 16.2319 6.25412 16.0297 6.45699C15.8276 6.65986 15.7143 6.9347 15.7148 7.22107ZM7.37892 12.0402C7.38396 14.5926 9.45686 16.6571 12.0087 16.6522C14.5606 16.6473 16.6265 14.5746 16.6217 12.0222C16.6168 9.46982 14.5434 7.40485 11.9911 7.40989C9.43886 7.41493 7.37406 9.48818 7.37892 12.0402ZM9.00002 12.037C8.99884 11.4436 9.17365 10.8632 9.50232 10.3692C9.831 9.87523 10.2988 9.48978 10.8465 9.26162C11.3943 9.03347 11.9974 8.97287 12.5796 9.08747C13.1617 9.20208 13.6969 9.48675 14.1173 9.90548C14.5377 10.3242 14.8245 10.8582 14.9414 11.4399C15.0583 12.0217 15.0001 12.625 14.7741 13.1736C14.5481 13.7223 14.1645 14.1916 13.6718 14.5222C13.1791 14.8528 12.5994 15.0299 12.006 15.0311C11.6121 15.0319 11.2218 14.9551 10.8575 14.8051C10.4931 14.6551 10.162 14.4348 9.88281 14.1567C9.60367 13.8787 9.38203 13.5484 9.23056 13.1847C9.07909 12.821 9.00075 12.431 9.00002 12.037Z" fill="#33363D"/>
</svg>
