<svg width="40" height="40" viewBox="0 0 40 40" fill="none" xmlns="http://www.w3.org/2000/svg">
<path d="M33.668 6.66797C35.3247 6.66814 36.668 8.01122 36.668 9.66797V30.334C36.668 31.9907 35.3247 33.3338 33.668 33.334H6.33398C4.67728 33.3338 3.33398 31.9907 3.33398 30.334V9.66797C3.33404 8.01128 4.67731 6.66815 6.33398 6.66797H33.668ZM20.7734 25.2578C20.3124 25.5838 19.6957 25.5844 19.2344 25.2588L6.00098 15.9082V30.334C6.00098 30.518 6.15004 30.6678 6.33398 30.668H33.668C33.8519 30.6678 34.001 30.518 34.001 30.334V15.9033L20.7734 25.2578ZM6.33398 9.33496C6.15008 9.33514 6.00104 9.48403 6.00098 9.66797V12.6436L20.0029 22.5361L34.001 12.6377V9.66797C34.001 9.48398 33.8519 9.33416 33.668 9.33398L6.33398 9.33496Z" fill="#ED1F1C"/>
</svg>
