<svg width="17" height="16" viewBox="0 0 17 16" fill="none" xmlns="http://www.w3.org/2000/svg">
<path d="M8.88371 14C10.215 13.9998 11.5084 13.5569 12.5603 12.7409C13.6122 11.925 14.3629 10.7823 14.6941 9.49293C15.0254 8.20352 14.9184 6.84056 14.39 5.61863C13.8616 4.3967 12.9419 3.3852 11.7755 2.74337C10.6092 2.10154 9.26251 1.86583 7.94751 2.07336C6.63251 2.28088 5.42387 2.91986 4.51187 3.88968C3.59988 4.8595 3.03632 6.10509 2.90992 7.43035C2.78353 8.75562 3.10148 10.0853 3.81371 11.21L2.88371 14L5.67371 13.07C6.63343 13.6791 7.74702 14.0017 8.88371 14Z" stroke="#58616A" stroke-width="1.5" stroke-linecap="round" stroke-linejoin="round"/>
</svg>
