<svg width="24" height="25" viewBox="0 0 24 25" fill="none" xmlns="http://www.w3.org/2000/svg">
<g clip-path="url(#clip0_487_14167)">
<path d="M6.36416 9.67328C5.98411 9.67328 5.67611 9.97214 5.67611 10.3409C5.67611 10.7097 5.98411 11.0099 6.36416 11.0099C6.74421 11.0099 7.05221 10.7111 7.05221 10.3409C7.05221 9.97077 6.74421 9.67328 6.36416 9.67328Z" fill="#33363D"/>
<path d="M13.1669 9.60337C12.7572 9.60337 12.4252 9.92553 12.4252 10.3231C12.4252 10.7207 12.7572 11.0428 13.1669 11.0428C13.5766 11.0428 13.9087 10.7207 13.9087 10.3231C13.9087 9.92553 13.5766 9.60337 13.1669 9.60337Z" fill="#33363D"/>
<path d="M16.9971 10.3231C16.9971 9.93513 17.3221 9.61982 17.7219 9.61982C18.1217 9.61982 18.4467 9.93513 18.4467 10.3231C18.4467 10.7111 18.1217 11.0264 17.7219 11.0264C17.3221 11.0264 16.9971 10.7111 16.9971 10.3231Z" fill="#33363D"/>
<path fill-rule="evenodd" clip-rule="evenodd" d="M4.6759 3.03125H19.3255C20.8033 3.03125 22.0014 4.19378 22.0014 5.62775V14.0643C22.0014 15.4983 20.8033 16.6608 19.3255 16.6608H14.1984L12.438 20.6844C12.438 20.6844 12.3179 21.0326 12.024 21.0326C11.7316 21.0326 11.6101 20.6844 11.6101 20.6844L9.84967 16.6608H4.6759C3.19808 16.6608 2 15.4983 2 14.0643V5.62775C2 4.19378 3.19808 3.03125 4.6759 3.03125ZM6.63125 12.0751C6.63125 12.0751 8.27437 12.0313 8.28285 10.489H8.28144C8.28144 10.489 8.50325 8.68624 6.73156 8.52584C6.73156 8.52584 5.91777 8.51762 5.63662 8.98373V7.15219C5.63662 7.15219 4.51483 7.1659 4.43995 7.15494V7.15219C4.4343 7.15357 4.43995 7.15494 4.43995 7.15494V11.9449H5.63662V11.6666C5.63662 11.6666 5.99548 12.0751 6.63125 12.0751ZM10.3894 11.9531V8.6739C10.3894 8.6739 10.5236 7.07131 8.65301 6.99728V8.14199C8.65301 8.14199 9.21814 8.26537 9.21814 8.7068V11.9531H10.3894ZM11.2018 10.3245C11.2018 11.2923 12.0805 12.0779 13.1656 12.0779C14.2506 12.0779 15.1294 11.2923 15.1294 10.3245C15.1294 9.35661 14.2506 8.57108 13.1656 8.57108C12.0805 8.57108 11.2018 9.35661 11.2018 10.3245ZM17.8548 13.7435C19.5996 13.7435 19.5826 12.0779 19.5826 12.0779V8.61769H18.3945V8.96865C18.0059 8.46141 17.3744 8.52721 17.3744 8.52721C15.7737 8.641 15.7398 10.0722 15.7398 10.0722V10.5959C15.7398 11.9764 17.1978 12.0779 17.1978 12.0779C18.2263 12.0779 18.369 11.6337 18.369 11.6337C18.3775 12.7304 17.6442 12.6646 17.6442 12.6646H17.3235V13.7435H17.8548Z" fill="#33363D"/>
</g>
<defs>
<clipPath id="clip0_487_14167">
<rect width="24" height="24" fill="white" transform="translate(0 0.03125)"/>
</clipPath>
</defs>
</svg>
