<svg width="16" height="16" viewBox="0 0 16 16" fill="none" xmlns="http://www.w3.org/2000/svg">
<path d="M1.3439 13.6087L1.7819 10.6091C1.8086 10.4131 1.89807 10.2308 2.03806 10.0902L10.5246 1.60262C10.6344 1.49132 10.7712 1.41022 10.9216 1.36716C11.0721 1.32411 11.2311 1.32056 11.3833 1.35687C12.1624 1.57197 12.8686 1.99386 13.4268 2.57772C14.0098 3.13911 14.4292 3.84801 14.6405 4.62882C14.6768 4.78083 14.6733 4.93965 14.6302 5.08989C14.5871 5.24013 14.5059 5.37672 14.3944 5.48644L5.89853 13.9632C5.75762 14.1027 5.57491 14.1923 5.37827 14.2184L2.37576 14.6558C2.23393 14.6765 2.08922 14.6635 1.95336 14.6178C1.81751 14.5722 1.69433 14.4952 1.59383 14.3932C1.49332 14.2911 1.41832 14.1668 1.3749 14.0304C1.33147 13.894 1.32085 13.7492 1.3439 13.6079M8.91907 3.21698L12.7889 7.08206" stroke="white" stroke-width="1.33333" stroke-linecap="round" stroke-linejoin="round"/>
</svg>
