<svg width="20" height="21" viewBox="0 0 20 21" fill="none" xmlns="http://www.w3.org/2000/svg">
<rect width="16.6667" height="16.6667" rx="8.33333" transform="matrix(1 0 0 -1 1.66797 18.8335)" fill="#ED1F1C"/>
<path d="M9.91667 8.36768C10.469 8.36768 10.9167 7.91996 10.9167 7.36768C10.9167 6.81539 10.469 6.36768 9.91667 6.36768C9.36438 6.36768 8.91667 6.81539 8.91667 7.36768C8.91667 7.91996 9.36438 8.36768 9.91667 8.36768Z" fill="white"/>
<path d="M8.7 9.19279C8.58954 9.19279 8.5 9.28233 8.5 9.39279V9.99279C8.5 10.1032 8.58954 10.1928 8.7 10.1928H9.21797C9.32843 10.1928 9.41797 10.2823 9.41797 10.3928V13.495H8.53398C8.42353 13.495 8.33398 13.5845 8.33398 13.695V14.295C8.33398 14.4054 8.42353 14.495 8.53398 14.495H11.4673C11.5778 14.495 11.6673 14.4054 11.6673 14.295V13.695C11.6673 13.5845 11.5778 13.495 11.4673 13.495H10.918V9.39279C10.918 9.28233 10.8284 9.19279 10.718 9.19279H8.7Z" fill="white"/>
</svg>
