<svg width="32" height="32" viewBox="0 0 32 32" fill="none" xmlns="http://www.w3.org/2000/svg">
<rect width="32" height="32" rx="16" fill="#F14F4D"/>
<path fill-rule="evenodd" clip-rule="evenodd" d="M16.0042 6.83203C16.2036 6.83203 16.3945 6.91329 16.5328 7.05709L21.1161 11.8238C21.3968 12.1157 21.3877 12.5799 21.0958 12.8606C20.8038 13.1414 20.3396 13.1323 20.0589 12.8403L16.7375 9.38607L16.7375 24.4313C16.7375 24.8363 16.4092 25.1646 16.0042 25.1646C15.5992 25.1646 15.2708 24.8363 15.2708 24.4313L15.2708 9.38607L11.9494 12.8403C11.6687 13.1323 11.2045 13.1414 10.9126 12.8606C10.6206 12.5799 10.6115 12.1157 10.8922 11.8238L15.4756 7.05709C15.6138 6.91329 15.8047 6.83203 16.0042 6.83203Z" fill="white"/>
</svg>
