<svg width="24" height="25" viewBox="0 0 24 25" fill="none" xmlns="http://www.w3.org/2000/svg">
<g clip-path="url(#clip0_487_14160)">
<path d="M12 4.53125C12 4.53125 18.254 4.531 19.8135 4.97852C20.6737 5.22528 21.3525 5.95131 21.582 6.87305C22.0002 8.54482 22 12.0312 22 12.0312C22 12.0323 22.0002 15.5191 21.582 17.1895C21.3525 18.1112 20.6737 18.8372 19.8135 19.084C18.254 19.5315 12 19.5312 12 19.5312C11.9984 19.5312 5.74694 19.5314 4.18652 19.084C3.32632 18.8372 2.64753 18.1112 2.41797 17.1895C1.99985 15.5179 2 12.0323 2 12.0312C2 12.0312 1.99979 8.54482 2.41797 6.87305C2.64753 5.95131 3.32632 5.22528 4.18652 4.97852C5.7458 4.53106 11.9984 4.53125 12 4.53125ZM10 14.5312L15 12.0312L10 9.53125V14.5312Z" fill="#33363D"/>
</g>
<defs>
<clipPath id="clip0_487_14160">
<rect width="24" height="24" fill="white" transform="translate(0 0.03125)"/>
</clipPath>
</defs>
</svg>
